<svg width="512" height="512" viewBox="0 0 512 512" fill="none" xmlns="http://www.w3.org/2000/svg">
<path d="M375.211 183.125L390.208 198.272L261.376 325.888C251.072 336.107 237.461 341.227 223.872 341.227C210.368 341.227 196.864 336.192 186.56 326.101L121.813 262.293L136.768 247.104L201.493 310.891C213.888 323.008 234.005 322.944 246.379 310.741L375.211 183.125ZM512 256C512 397.163 397.163 512 256 512C114.837 512 0 397.163 0 256C0 114.837 114.837 0 256 0C397.163 0 512 114.837 512 256ZM490.667 256C490.667 126.613 385.387 21.3333 256 21.3333C126.613 21.3333 21.3333 126.613 21.3333 256C21.3333 385.387 126.613 490.667 256 490.667C385.387 490.667 490.667 385.387 490.667 256Z" fill="#5AA637"/>
</svg>
