<svg width="512" height="457" viewBox="0 0 512 457" fill="none" xmlns="http://www.w3.org/2000/svg">
<g filter="url(#filter0_d_6_8)">
<path d="M245.333 288.333V117.667C245.333 111.693 250.027 107 256 107C261.973 107 266.667 111.693 266.667 117.667V288.333C266.667 294.307 261.973 299 256 299C250.027 299 245.333 294.307 245.333 288.333ZM256 341.667C244.267 341.667 234.667 351.267 234.667 363C234.667 374.733 244.267 384.333 256 384.333C267.733 384.333 277.333 374.733 277.333 363C277.333 351.267 267.733 341.667 256 341.667ZM503.68 407.16C490.027 433.4 461.227 448.333 424.533 448.333H87.4666C50.9866 448.333 21.9733 433.4 8.31997 407.16C-5.5467 380.707 -1.7067 345.933 18.56 316.707L198.4 30.84C211.627 11.64 233.173 0.333328 256 0.333328C278.827 0.333328 300.373 11.64 313.387 30.4133L493.44 316.92C513.707 346.147 517.547 380.707 503.68 407.16ZM475.733 328.867C475.733 328.867 475.733 328.653 475.52 328.44L295.68 42.1467C286.72 29.1333 272.213 21.6667 256 21.6667C239.787 21.6667 225.28 29.3467 216.107 42.5733L36.48 328.44C20.48 351.48 17.0666 377.72 27.3066 397.347C37.3333 416.547 58.6666 427 87.4666 427H424.747C453.547 427 474.88 416.547 484.907 397.347C495.147 377.933 491.733 351.693 475.947 328.867H475.733Z" fill="#EAE081"/>
<path d="M503.237 406.928L503.236 406.929C489.692 432.961 461.095 447.833 424.533 447.833H87.4666C51.118 447.833 22.308 432.96 8.76352 406.929L8.76281 406.928C-5.00002 380.673 -1.21297 346.099 18.9708 316.992L18.9772 316.982L18.9832 316.973L198.812 31.1236C198.814 31.1208 198.816 31.118 198.818 31.1151C211.952 12.0544 233.343 0.833328 256 0.833328C278.658 0.833328 300.048 12.0555 312.969 30.6888L493.017 317.186L493.023 317.196L493.029 317.205C513.213 346.312 517 380.673 503.237 406.928ZM296.103 41.8807L296.098 41.8718L296.092 41.8631C287.035 28.7095 272.372 21.1667 256 21.1667C239.621 21.1667 224.962 28.928 215.696 42.2884L215.689 42.2977L215.683 42.3073L36.0627 328.164C19.9944 351.308 16.5155 377.745 26.8633 397.578L27.3066 397.347L26.8634 397.578C37.0055 416.999 58.5534 427.5 87.4666 427.5H424.747C453.659 427.5 475.206 417 485.349 397.58C495.7 377.956 492.218 351.515 476.358 328.582L476.209 328.367H476.088C476.045 328.29 475.989 328.21 475.917 328.132L296.103 41.8807ZM245.833 288.333V117.667C245.833 111.969 250.303 107.5 256 107.5C261.697 107.5 266.167 111.969 266.167 117.667V288.333C266.167 294.031 261.697 298.5 256 298.5C250.303 298.5 245.833 294.031 245.833 288.333ZM235.167 363C235.167 351.543 244.543 342.167 256 342.167C267.457 342.167 276.833 351.543 276.833 363C276.833 374.457 267.457 383.833 256 383.833C244.543 383.833 235.167 374.457 235.167 363Z" stroke="black"/>
</g>
<defs>
<filter id="filter0_d_6_8" x="-3.90314" y="0.333328" width="519.806" height="456" filterUnits="userSpaceOnUse" color-interpolation-filters="sRGB">
<feFlood flood-opacity="0" result="BackgroundImageFix"/>
<feColorMatrix in="SourceAlpha" type="matrix" values="0 0 0 0 0 0 0 0 0 0 0 0 0 0 0 0 0 0 127 0" result="hardAlpha"/>
<feOffset dy="4"/>
<feGaussianBlur stdDeviation="2"/>
<feComposite in2="hardAlpha" operator="out"/>
<feColorMatrix type="matrix" values="0 0 0 0 0 0 0 0 0 0 0 0 0 0 0 0 0 0 0.25 0"/>
<feBlend mode="normal" in2="BackgroundImageFix" result="effect1_dropShadow_6_8"/>
<feBlend mode="normal" in="SourceGraphic" in2="effect1_dropShadow_6_8" result="shape"/>
</filter>
</defs>
</svg>
